# xmcd
#
# Track frame offsets:
#	150
#	20915
#	41412
#	56920
#	74087
#	92820
#	105050
#	128967
#	146902
#	162037
#	183340
#	199035
#	221947
#	239705
#	262007
#	277242
#
# Disc length: 3968 seconds
#
# Revision: 1
# Processed by: cddbd v1.5.2PL0 Copyright (c) Steve Scherf et al.
# Submitted via: EasyCDDAExtractor 10.0.5.1
#
DISCID=050f7e10
DTITLE=Various Artist - 十大國語金曲盡精英 II
DYEAR=1982
DGENRE=Oldies
TTITLE0=毛寧 - 濤聲依舊
TTITLE1=李春波 - 小芳
TTITLE2=李茂山 - 晚秋
TTITLE3=李茂山 - 無言的結局
TTITLE4=葉蒨文 - 瀟灑走一回
TTITLE5=毛亞敏 - 渴望
TTITLE6=潘美辰 - 我想有個家
TTITLE7=陳淑華 - 夢醒時份
TTITLE8=董文華 - 十五的月亮
TTITLE9=趙傳 - 你如何還能這樣温柔
TTITLE10=鄧麗君 - 月亮代表我的心
TTITLE11=孟庭葦 - 冬季到台北來看雨
TTITLE12=張信哲 - 難以抗拒你容顏
TTITLE13=齊秦 - 原來的我
TTITLE14=李春波 - 一封家書
TTITLE15=王虹 - 血染風采
EXTD=
EXTT0=
EXTT1=
EXTT2=
EXTT3=
EXTT4=
EXTT5=
EXTT6=
EXTT7=
EXTT8=
EXTT9=
EXTT10=
EXTT11=
EXTT12=
EXTT13=
EXTT14=
EXTT15=
PLAYORDER=
